<?xml version="1.0" encoding="utf-8"?>
<!-- Generator: Adobe Illustrator 23.1.0, SVG Export Plug-In . SVG Version: 6.00 Build 0)  -->
<svg version="1.1" id="Layer_1" xmlns="http://www.w3.org/2000/svg" xmlns:xlink="http://www.w3.org/1999/xlink" x="0px" y="0px"
	 viewBox="0 0 1200 1200" enable-background="new 0 0 1200 1200" xml:space="preserve">
<g>
	<path fill="#81ABD9" d="M1095.434,272.873H461.983L376.454,159.23H94.651c-24.49,0-44.342,20.862-44.342,46.596v67.047H50v189.118
		c0-72.08,58.432-130.512,130.512-130.512h838.976c72.08,0,130.512,58.432,130.512,130.512V334.105
		C1150,300.288,1125.57,272.873,1095.434,272.873z"/>
	<path fill="#A0C6E8" d="M1019.488,331.479H180.512C108.432,331.479,50,389.912,50,461.991v382.709v65.557
		c0,72.08,58.432,130.512,130.512,130.512h838.976c72.08,0,130.512-58.432,130.512-130.512v-65.557V461.991
		C1150,389.912,1091.568,331.479,1019.488,331.479z"/>
</g>
</svg>
